# xmcd
#
# Track frame offsets: 
#        150
#        17490
#        37747
#        56566
#        76810
#        105163
#        124122
#        143406
#        160964
#        178643
#        194451
#        223946
#        241952
#        268753
#        289434
#        305665
#        328630
#
# Disc length: 4691 seconds
#
# Revision: 0
# Processed by: cddbd v1.5.2PL0 Copyright (c) Steve Scherf et al.
# Submitted via: ExactAudioCopy v0.99pb5
#
DISCID=eb125111
DTITLE=Various Artist - Vanuatu-The Best Hits
DYEAR=2005
DGENRE=Ethnic
TTITLE0=Saba-Ten Dollars Beach
TTITLE1=Saba-Kam Bak Darling
TTITLE2=Black Brothers (XB1)-Amas Be Drop
TTITLE3=Black Brothers-Anita
TTITLE4=Saba-Merry Manu
TTITLE5=Black Brothers-Blue Ais Blong Santo
TTITLE6=Black Brothers-Sweet Josephine
TTITLE7=Saba-Sore Nige
TTITLE8=Saba-Soa'e
TTITLE9=Black Brothers-(XB1)-Sera
TTITLE10=Black Brothers-Braun Ais Blong Ifira
TTITLE11=Cros Rod-Onesua
TTITLE12=Reynold (Reynold)-Igomaya
TTITLE13=Cros Rod (John)-Vanuatu Blong Mi
TTITLE14=Pidgin Mix (Dausake)-Island Dress
TTITLE15=Saba (Kanse Nao)-Island Blong Mi
TTITLE16=Cros Rod (John)-My Beautiful Star
EXTD=
EXTT0=
EXTT1=
EXTT2=
EXTT3=
EXTT4=
EXTT5=
EXTT6=
EXTT7=
EXTT8=
EXTT9=
EXTT10=
EXTT11=
EXTT12=
EXTT13=
EXTT14=
EXTT15=
EXTT16=
PLAYORDER=
